<svg xmlns="http://www.w3.org/2000/svg" viewBox="0 0 512 512" role="img" aria-label="Rundflug-Leitstand">
  <rect width="512" height="512" rx="104" fill="#102a43"/>
  <circle cx="256" cy="256" r="166" fill="#151618" stroke="#303338" stroke-width="10"/>
  <circle cx="256" cy="256" r="130" fill="none" stroke="#2f8af5" stroke-width="14" opacity="0.55"/>
  <path
    d="m179 251.8 79-26 45.8-82.2 22.9 11.4-17.7 64.5 63.4-21.8 15.6 19.8-68.6 48.9-12.5 70.7-22.9-11.4-9.4-46.8-55.1 20.8-13.5-18.7 42.6-37.4-52-14.6Z"
    fill="#2f8af5"
    stroke="#b9dcff"
    stroke-linejoin="round"
    stroke-width="8"
  />
  <path
    d="M241.4 374.6v-42.6c0-9.4 6.2-16.6 14.6-16.6s14.6 7.3 14.6 16.6v42.6"
    fill="none"
    stroke="#2f8af5"
    stroke-linecap="round"
    stroke-width="14"
  />
  <path
    d="M227.9 315.3a40.6 40.6 0 0 1 56.2 0M215.4 295.5a64.5 64.5 0 0 1 81.1 0"
    fill="none"
    stroke="#2f8af5"
    stroke-linecap="round"
    stroke-width="12"
    opacity="0.7"
  />
</svg>
