<svg xmlns="http://www.w3.org/2000/svg" viewBox="0 0 24 24" role="img" aria-label="Rundflug-Leitstand">
  <rect x="0.75" y="0.75" width="22.5" height="22.5" rx="4.75" fill="#151618"/>
  <path
    d="m17.8 19.2-1.8-8.2 3.5-3.5c1.5-1.5 2-3.5 1.5-4.5-1-.5-3 0-4.5 1.5l-3.5 3.5-8.2-1.8c-.5-.1-.9.1-1.1.5l-.3.5c-.2.5-.1 1 .3 1.3l5.3 3.5-2 3h-3l-1 1 4 2 2 4 1-1v-3l3-2 3.5 5.3c.3.4.8.5 1.3.3l.5-.2c.4-.3.6-.7.5-1.2Z"
    fill="none"
    stroke="#2f8af5"
    stroke-linecap="round"
    stroke-linejoin="round"
    stroke-width="1.75"
  />
</svg>
