<svg xmlns="http://www.w3.org/2000/svg" viewBox="0 0 512 512" role="img" aria-label="Rundflug-Assist">
  <rect width="512" height="512" rx="104" fill="#102a43"/>
  <circle cx="256" cy="256" r="154" fill="#2f8af5"/>
  <g transform="translate(112 112) scale(12)" fill="none" stroke="#ffffff" stroke-linecap="round" stroke-linejoin="round" stroke-width="1.8">
    <path d="M3 14h3a2 2 0 0 1 2 2v3a2 2 0 0 1-2 2H5a2 2 0 0 1-2-2v-7a9 9 0 0 1 18 0v7a2 2 0 0 1-2 2h-1a2 2 0 0 1-2-2v-3a2 2 0 0 1 2-2h3"/>
  </g>
</svg>
