<svg xmlns="http://www.w3.org/2000/svg" viewBox="0 0 512 512" role="img" aria-label="Rundflug-Ticket">
  <rect width="512" height="512" rx="104" fill="#102a43"/>
  <circle cx="256" cy="256" r="154" fill="#2f8af5"/>
  <g transform="translate(112 112) scale(12)" fill="none" stroke="#ffffff" stroke-linecap="round" stroke-linejoin="round" stroke-width="1.8">
    <path d="M2 9a3 3 0 0 1 0 6v2a2 2 0 0 0 2 2h16a2 2 0 0 0 2-2v-2a3 3 0 0 1 0-6V7a2 2 0 0 0-2-2H4a2 2 0 0 0-2 2Z"/>
    <path d="M13 5v2M13 17v2M13 11v2"/>
  </g>
</svg>
